<!DOCTYPE svg PUBLIC "-//W3C//DTD SVG 1.1//EN" "http://www.w3.org/Graphics/SVG/1.1/DTD/svg11.dtd">
<!-- Uploaded to: SVG Repo, www.svgrepo.com, Transformed by: SVG Repo Mixer Tools -->
<svg width="800px" height="800px" viewBox="-10.56 -10.56 45.12 45.12" xmlns="http://www.w3.org/2000/svg" fill="#000000">
<g id="SVGRepo_bgCarrier" stroke-width="0" transform="translate(6.12,6.12), scale(0.49)">
<path transform="translate(-10.56, -10.56), scale(1.41)" d="M16,28.25010890300785C19.40755294450272,28.21029477726698,23.062962352117463,29.684678459157166,25.905061382780396,27.804392487794708C28.875082060310742,25.839475658941595,30.45213865493181,22.135088479953133,30.619829238661097,18.57787034812645C30.77519040458393,15.282195992942505,28.562593923171587,12.55064843227492,26.75422745305505,9.791043885052208C25.073365516205758,7.226013886523221,23.427646290643224,4.541492124799343,20.61736275265801,3.313900099641282C17.67508559683485,2.028650435871498,14.334575684554322,2.0428006322863097,11.279854330697166,3.031506357053937C8.127912534825333,4.051678915109968,5.049709409583379,5.860135902929146,3.5788732317106025,8.828659116689643C2.1556439179358913,11.701099514882035,3.4029241354091995,14.970859687739102,3.787282012522226,18.15343168897591C4.203808363968371,21.602366087944937,3.2213292930999478,25.824593626980523,5.898795014366831,28.038147331158868C8.575122840350598,30.250760297870848,12.527718212271644,28.29067932581738,16,28.25010890300785" fill="#a0db57" strokewidth="0"/>
</g>
<g id="SVGRepo_tracerCarrier" stroke-linecap="round" stroke-linejoin="round"/>
<g id="SVGRepo_iconCarrier"> <title/> <g id="Complete"> <g id="align-left"> <g> <polygon fill="#ffffff" points="12.9 18 4.1 18 4.1 18 12.9 18 12.9 18" stroke="#000000" stroke-linecap="round" stroke-linejoin="round" stroke-width="2"/> <polygon fill="#ffffff" points="20 14 4 14 4 14 20 14 20 14" stroke="#000000" stroke-linecap="round" stroke-linejoin="round" stroke-width="2"/> <polygon fill="#ffffff" points="12.9 10 4.1 10 4.1 10 12.9 10 12.9 10" stroke="#000000" stroke-linecap="round" stroke-linejoin="round" stroke-width="2"/> <polygon fill="#ffffff" points="20 6 4 6 4 6 20 6 20 6" stroke="#000000" stroke-linecap="round" stroke-linejoin="round" stroke-width="2"/> </g> </g> </g> </g>
</svg>